<?xml version="1.0" encoding="iso-8859-1"?>
<!-- Generator: Adobe Illustrator 19.0.0, SVG Export Plug-In . SVG Version: 6.00 Build 0)  -->
<svg version="1.1" id="Layer_1" xmlns="http://www.w3.org/2000/svg" xmlns:xlink="http://www.w3.org/1999/xlink" x="0px" y="0px"
	 viewBox="0 0 335.186 335.186" style="enable-background:new 0 0 335.186 335.186;" xml:space="preserve">
<g>
	<polygon style="fill:#FCE38A;" points="277.671,255.669 57.514,255.669 7.514,143.175 167.59,186.422 327.671,143.175 	"/>
	<polygon style="fill:#FCE38A;" points="167.59,186.422 227.856,170.141 167.593,79.512 107.329,170.141 	"/>
	<path style="fill:#414042;" d="M325.715,135.934l-94.603,25.558c-60.668-91.236-57.645-88.15-61.555-89.211
		c-1.195-0.326-2.423-0.361-3.691-0.061c-4.117,0.974,0.409-4.271-61.793,89.273L9.47,135.934
		c-6.076-1.648-11.371,4.523-8.809,10.287l50,112.495c0.013,0.03,0.033,0.057,0.047,0.087c1.271,2.753,3.993,4.368,6.814,4.368
		c0.005,0,0.009-0.001,0.014-0.001h220.135c0.024,0,0.048-0.005,0.073-0.005c2.822-0.03,5.48-1.645,6.734-4.361
		c0.014-0.03,0.033-0.057,0.047-0.087l50-112.495C337.083,140.462,331.8,134.289,325.715,135.934z M167.59,195.282l84.074,52.887
		H83.521L167.59,195.282z M175.092,176.626v-72.29l40.749,61.282L175.092,176.626z M160.092,104.336v72.291l-40.749-11.009
		L160.092,104.336z M149.097,189.195L60.851,244.71l-40.085-90.186L149.097,189.195z M274.334,244.71l-88.252-55.515
		c23.895-6.456,126.947-34.296,128.337-34.671L274.334,244.71z"/>
</g>
<g>
</g>
<g>
</g>
<g>
</g>
<g>
</g>
<g>
</g>
<g>
</g>
<g>
</g>
<g>
</g>
<g>
</g>
<g>
</g>
<g>
</g>
<g>
</g>
<g>
</g>
<g>
</g>
<g>
</g>
</svg>
